<svg width="88" height="29" viewBox="0 0 88 29" fill="none" xmlns="http://www.w3.org/2000/svg">
<rect width="88" height="29" fill="#942446"/>
<path d="M8.38611 19.7128H16.1969M16.1969 19.7128H21.7761C19.747 12.8398 15.504 11.1356 11.1757 9.65958M16.1969 19.7128C14.9244 16.8026 13.1232 15.5051 8.94402 14.1277" stroke="#EEEEEE"/>
<path d="M35.166 19.7128H27.3552M27.3552 19.7128H21.7761C23.8052 12.8398 28.0481 11.1356 32.3765 9.65958M27.3552 19.7128C28.6278 16.8026 30.429 15.5051 34.6081 14.1277" stroke="#EEEEEE"/>
<path d="M21.776 8.54271C21.776 9.10103 16.1969 15.2446 16.1969 19.7127" stroke="#EEEEEE"/>
<path d="M21.7761 8.54254C21.7761 9.10086 27.3552 15.2445 27.3552 19.7126" stroke="#EEEEEE"/>
<path d="M45.868 16.14H42.22L41.548 18H40.396L43.42 9.684H44.68L47.692 18H46.54L45.868 16.14ZM45.556 15.252L44.044 11.028L42.532 15.252H45.556ZM54.8419 11.424V18H53.7499V17.028C53.5419 17.364 53.2499 17.628 52.8739 17.82C52.5059 18.004 52.0979 18.096 51.6499 18.096C51.1379 18.096 50.6779 17.992 50.2699 17.784C49.8619 17.568 49.5379 17.248 49.2979 16.824C49.0659 16.4 48.9499 15.884 48.9499 15.276V11.424H50.0299V15.132C50.0299 15.78 50.1939 16.28 50.5219 16.632C50.8499 16.976 51.2979 17.148 51.8659 17.148C52.4499 17.148 52.9099 16.968 53.2459 16.608C53.5819 16.248 53.7499 15.724 53.7499 15.036V11.424H54.8419ZM57.7777 12.492C57.9697 12.116 58.2417 11.824 58.5937 11.616C58.9537 11.408 59.3897 11.304 59.9017 11.304V12.432H59.6137C58.3897 12.432 57.7777 13.096 57.7777 14.424V18H56.6857V11.424H57.7777V12.492ZM64.0303 18.108C63.4143 18.108 62.8543 17.968 62.3503 17.688C61.8543 17.408 61.4623 17.012 61.1743 16.5C60.8943 15.98 60.7543 15.38 60.7543 14.7C60.7543 14.028 60.8983 13.436 61.1863 12.924C61.4823 12.404 61.8823 12.008 62.3863 11.736C62.8903 11.456 63.4543 11.316 64.0783 11.316C64.7023 11.316 65.2663 11.456 65.7703 11.736C66.2743 12.008 66.6703 12.4 66.9583 12.912C67.2543 13.424 67.4023 14.02 67.4023 14.7C67.4023 15.38 67.2503 15.98 66.9463 16.5C66.6503 17.012 66.2463 17.408 65.7343 17.688C65.2223 17.968 64.6543 18.108 64.0303 18.108ZM64.0303 17.148C64.4223 17.148 64.7903 17.056 65.1343 16.872C65.4783 16.688 65.7543 16.412 65.9623 16.044C66.1783 15.676 66.2863 15.228 66.2863 14.7C66.2863 14.172 66.1823 13.724 65.9743 13.356C65.7663 12.988 65.4943 12.716 65.1583 12.54C64.8223 12.356 64.4583 12.264 64.0663 12.264C63.6663 12.264 63.2983 12.356 62.9623 12.54C62.6343 12.716 62.3703 12.988 62.1703 13.356C61.9703 13.724 61.8703 14.172 61.8703 14.7C61.8703 15.236 61.9663 15.688 62.1583 16.056C62.3583 16.424 62.6223 16.7 62.9503 16.884C63.2783 17.06 63.6383 17.148 64.0303 17.148ZM69.9301 12.492C70.1221 12.116 70.3941 11.824 70.7461 11.616C71.1061 11.408 71.5421 11.304 72.0541 11.304V12.432H71.7661C70.5421 12.432 69.9301 13.096 69.9301 14.424V18H68.8381V11.424H69.9301V12.492ZM72.9066 14.688C72.9066 14.016 73.0426 13.428 73.3146 12.924C73.5866 12.412 73.9586 12.016 74.4306 11.736C74.9106 11.456 75.4426 11.316 76.0266 11.316C76.6026 11.316 77.1026 11.44 77.5266 11.688C77.9506 11.936 78.2666 12.248 78.4746 12.624V11.424H79.5786V18H78.4746V16.776C78.2586 17.16 77.9346 17.48 77.5026 17.736C77.0786 17.984 76.5826 18.108 76.0146 18.108C75.4306 18.108 74.9026 17.964 74.4306 17.676C73.9586 17.388 73.5866 16.984 73.3146 16.464C73.0426 15.944 72.9066 15.352 72.9066 14.688ZM78.4746 14.7C78.4746 14.204 78.3746 13.772 78.1746 13.404C77.9746 13.036 77.7026 12.756 77.3586 12.564C77.0226 12.364 76.6506 12.264 76.2426 12.264C75.8346 12.264 75.4626 12.36 75.1266 12.552C74.7906 12.744 74.5226 13.024 74.3226 13.392C74.1226 13.76 74.0226 14.192 74.0226 14.688C74.0226 15.192 74.1226 15.632 74.3226 16.008C74.5226 16.376 74.7906 16.66 75.1266 16.86C75.4626 17.052 75.8346 17.148 76.2426 17.148C76.6506 17.148 77.0226 17.052 77.3586 16.86C77.7026 16.66 77.9746 16.376 78.1746 16.008C78.3746 15.632 78.4746 15.196 78.4746 14.7Z" fill="white"/>
</svg>
