<svg width="90" height="29" viewBox="0 0 90 29" fill="none" xmlns="http://www.w3.org/2000/svg">
<rect width="90" height="29" fill="white"/>
<path d="M20.3899 10.0002C20.3899 10.5585 14.8108 16.7021 14.8108 21.1702" stroke="#942446"/>
<path d="M20.39 10C20.39 10.5583 25.9691 16.7019 25.9691 21.17" stroke="#942446"/>
<path d="M7 21.1702H14.8108M14.8108 21.1702H20.39C18.3609 14.2972 14.1179 12.593 9.78958 11.117M14.8108 21.1702C13.5382 18.26 11.7371 16.9625 7.55792 15.5851" stroke="#942446"/>
<path d="M33.7799 21.1702H25.9691M25.9691 21.1702H20.3899C22.419 14.2972 26.662 12.593 30.9903 11.117M25.9691 21.1702C27.2417 18.26 29.0428 16.9625 33.222 15.5851" stroke="#942446"/>
<path d="M44.868 19.14H41.22L40.548 21H39.396L42.42 12.684H43.68L46.692 21H45.54L44.868 19.14ZM44.556 18.252L43.044 14.028L41.532 18.252H44.556ZM53.8419 14.424V21H52.7499V20.028C52.5419 20.364 52.2499 20.628 51.8739 20.82C51.5059 21.004 51.0979 21.096 50.6499 21.096C50.1379 21.096 49.6779 20.992 49.2699 20.784C48.8619 20.568 48.5379 20.248 48.2979 19.824C48.0659 19.4 47.9499 18.884 47.9499 18.276V14.424H49.0299V18.132C49.0299 18.78 49.1939 19.28 49.5219 19.632C49.8499 19.976 50.2979 20.148 50.8659 20.148C51.4499 20.148 51.9099 19.968 52.2459 19.608C52.5819 19.248 52.7499 18.724 52.7499 18.036V14.424H53.8419ZM56.7777 15.492C56.9697 15.116 57.2417 14.824 57.5937 14.616C57.9537 14.408 58.3897 14.304 58.9017 14.304V15.432H58.6137C57.3897 15.432 56.7777 16.096 56.7777 17.424V21H55.6857V14.424H56.7777V15.492ZM63.0303 21.108C62.4143 21.108 61.8543 20.968 61.3503 20.688C60.8543 20.408 60.4623 20.012 60.1743 19.5C59.8943 18.98 59.7543 18.38 59.7543 17.7C59.7543 17.028 59.8983 16.436 60.1863 15.924C60.4823 15.404 60.8823 15.008 61.3863 14.736C61.8903 14.456 62.4543 14.316 63.0783 14.316C63.7023 14.316 64.2663 14.456 64.7703 14.736C65.2743 15.008 65.6703 15.4 65.9583 15.912C66.2543 16.424 66.4023 17.02 66.4023 17.7C66.4023 18.38 66.2503 18.98 65.9463 19.5C65.6503 20.012 65.2463 20.408 64.7343 20.688C64.2223 20.968 63.6543 21.108 63.0303 21.108ZM63.0303 20.148C63.4223 20.148 63.7903 20.056 64.1343 19.872C64.4783 19.688 64.7543 19.412 64.9623 19.044C65.1783 18.676 65.2863 18.228 65.2863 17.7C65.2863 17.172 65.1823 16.724 64.9743 16.356C64.7663 15.988 64.4943 15.716 64.1583 15.54C63.8223 15.356 63.4583 15.264 63.0663 15.264C62.6663 15.264 62.2983 15.356 61.9623 15.54C61.6343 15.716 61.3703 15.988 61.1703 16.356C60.9703 16.724 60.8703 17.172 60.8703 17.7C60.8703 18.236 60.9663 18.688 61.1583 19.056C61.3583 19.424 61.6223 19.7 61.9503 19.884C62.2783 20.06 62.6383 20.148 63.0303 20.148ZM68.9301 15.492C69.1221 15.116 69.3941 14.824 69.7461 14.616C70.1061 14.408 70.5421 14.304 71.0541 14.304V15.432H70.7661C69.5421 15.432 68.9301 16.096 68.9301 17.424V21H67.8381V14.424H68.9301V15.492ZM71.9066 17.688C71.9066 17.016 72.0426 16.428 72.3146 15.924C72.5866 15.412 72.9586 15.016 73.4306 14.736C73.9106 14.456 74.4426 14.316 75.0266 14.316C75.6026 14.316 76.1026 14.44 76.5266 14.688C76.9506 14.936 77.2666 15.248 77.4746 15.624V14.424H78.5786V21H77.4746V19.776C77.2586 20.16 76.9346 20.48 76.5026 20.736C76.0786 20.984 75.5826 21.108 75.0146 21.108C74.4306 21.108 73.9026 20.964 73.4306 20.676C72.9586 20.388 72.5866 19.984 72.3146 19.464C72.0426 18.944 71.9066 18.352 71.9066 17.688ZM77.4746 17.7C77.4746 17.204 77.3746 16.772 77.1746 16.404C76.9746 16.036 76.7026 15.756 76.3586 15.564C76.0226 15.364 75.6506 15.264 75.2426 15.264C74.8346 15.264 74.4626 15.36 74.1266 15.552C73.7906 15.744 73.5226 16.024 73.3226 16.392C73.1226 16.76 73.0226 17.192 73.0226 17.688C73.0226 18.192 73.1226 18.632 73.3226 19.008C73.5226 19.376 73.7906 19.66 74.1266 19.86C74.4626 20.052 74.8346 20.148 75.2426 20.148C75.6506 20.148 76.0226 20.052 76.3586 19.86C76.7026 19.66 76.9746 19.376 77.1746 19.008C77.3746 18.632 77.4746 18.196 77.4746 17.7Z" fill="#942446"/>
</svg>
